<svg width="300" height="166" viewBox="0 0 300 166" fill="none" xmlns="http://www.w3.org/2000/svg">
<g filter="url(#filter0_i_3024_690)">
<path d="M145.501 83.9346C145.501 107.955 141.957 142.267 140.316 156.864C139.865 160.879 136.466 163.868 132.427 163.868H81.8564C80.9293 163.868 80.0207 163.787 79.1367 163.636C77.3732 163.789 75.5436 163.868 73.6455 163.868C32.9728 163.868 0.000152588 128.081 0 83.9346C0.000198364 39.7885 32.9728 4 73.6455 4C75.5436 4.00001 77.3733 4.07834 79.1367 4.23145C80.0206 4.08009 80.9294 4 81.8564 4L132.427 4C136.466 4.00013 139.865 6.98966 140.316 11.0039C141.957 25.6004 145.501 59.9135 145.501 83.9346ZM13.7764 83.3271C13.7755 83.4689 13.7734 83.611 13.7734 83.7529C13.7734 83.8949 13.7755 84.0369 13.7764 84.1787V83.3271ZM79.1816 132.089C79.1816 128.803 76.5233 126.173 73.2744 125.68C54.9906 122.904 40.5423 108.457 37.7666 90.1729C37.2733 86.9243 34.6441 84.2658 31.3584 84.2656L19.8232 84.2656C16.4918 84.2658 13.7696 86.9893 14.0967 90.3047C17.1727 121.48 41.9676 146.273 73.1436 149.348C76.4589 149.675 79.1816 146.953 79.1816 143.621V132.089ZM79.6914 17.835C79.5971 17.835 79.5025 17.8365 79.4082 17.8369H79.9756C79.881 17.8365 79.7861 17.835 79.6914 17.835Z" fill="#2370FF"/>
<path d="M193.218 5.3912C193.218 4.03078 194.018 2.43027 195.377 1.18988C196.817 -0.170547 201.095 -0.410614 202.894 0.709732C204.213 1.55 205.973 3.95076 207.132 6.43155C208.012 8.39217 209.331 13.5938 209.651 16.4747L209.931 18.7554H204.173H197.376L196.937 15.9146C196.657 14.114 195.937 11.9133 194.858 9.79262C193.938 7.99205 193.218 5.99139 193.218 5.3912Z" fill="#2370FF"/>
<path d="M161.794 34.1197C157.756 32.1991 157.437 24.5973 161.195 22.2365L162.634 21.3563L204.413 21.2762C228.641 21.2362 246.712 21.3562 247.431 21.5963C249.99 22.3166 252.029 25.7177 251.429 28.1584C251.269 28.7586 250.47 31.959 249.59 32.8793L248.031 34.5598L205.612 34.6798C166.992 34.7599 163.034 34.7198 161.794 34.1197Z" fill="#2370FF"/>
<path d="M188.541 53.8859C188.301 48.0441 188.941 44.3229 190.94 39.8415L192.139 37.1606H199.056H206.932L205.453 39.4413C204.613 40.7217 203.454 42.9625 202.854 44.4829C200.016 51.6852 200.535 56.6868 204.933 63.9291C206.972 67.2501 208.251 70.171 208.811 72.6518L209.091 73.9722H203.134H196.217L193.538 69.4508C189.7 63.0488 188.781 60.2079 188.541 53.8859Z" fill="#2370FF"/>
<path d="M161.315 88.7763C157.556 86.4555 157.556 79.8141 161.355 77.0132L162.474 76.1729H219.125C283.453 76.1729 295.727 76.333 297.086 77.0932C299.445 78.4537 300.245 84.0548 298.725 86.7756C297.006 89.8166 303.403 89.5765 229.12 89.5765H229.117C163.473 89.5765 162.634 89.5765 161.315 88.7763Z" fill="#2370FF"/>
<path d="M189.38 105.582C190.54 101.5 191.219 100.02 194.098 95.2583L196.137 91.9773H202.854C205.973 91.9773 208.651 92.1373 208.811 92.3374C209.051 92.7375 207.732 96.9389 206.692 98.9795C206.372 99.6197 205.293 101.5 204.333 103.101C201.135 108.222 200.375 112.544 201.615 117.905C202.294 120.746 204.173 124.668 205.893 126.868L207.092 128.389H200.295H192.499L191.419 126.508C189.38 122.827 188.741 120.146 188.541 114.504C188.341 109.703 188.421 108.943 189.38 105.582Z" fill="#2370FF"/>
<path d="M159.236 141.512C157.556 138.871 158.956 132.55 161.874 131.35C162.994 130.87 170.27 130.79 205.093 130.79H246.991L248.511 131.67C252.509 133.991 252.429 141.632 248.351 143.673C247.071 144.353 244.193 144.393 205.212 144.393C164.873 144.393 163.394 144.353 161.754 143.593C160.795 143.193 159.675 142.273 159.236 141.512Z" fill="#2370FF"/>
<path d="M194.858 155.997C195.977 153.876 196.657 151.916 196.937 150.035L197.376 147.194H204.173H209.931L209.651 149.595C209.211 153.436 208.291 156.357 206.292 160.398C204.733 163.559 204.133 164.359 202.814 165.08C201.935 165.6 200.655 166 200.016 166C197.177 166 193.218 163.199 193.218 160.518C193.218 159.718 193.858 157.877 194.858 155.997Z" fill="#2370FF"/>
</g>
<defs>
<filter id="filter0_i_3024_690" x="0.000976562" y="0" width="299.5" height="170" filterUnits="userSpaceOnUse" color-interpolation-filters="sRGB">
<feFlood flood-opacity="0" result="BackgroundImageFix"/>
<feBlend mode="normal" in="SourceGraphic" in2="BackgroundImageFix" result="shape"/>
<feColorMatrix in="SourceAlpha" type="matrix" values="0 0 0 0 0 0 0 0 0 0 0 0 0 0 0 0 0 0 127 0" result="hardAlpha"/>
<feOffset dy="4"/>
<feGaussianBlur stdDeviation="2"/>
<feComposite in2="hardAlpha" operator="arithmetic" k2="-1" k3="1"/>
<feColorMatrix type="matrix" values="0 0 0 0 0 0 0 0 0 0 0 0 0 0 0 0 0 0 0.25 0"/>
<feBlend mode="normal" in2="shape" result="effect1_innerShadow_3024_690"/>
</filter>
</defs>
</svg>
